# Blender 3.3.1
# www.blender.org
mtllib table.mtl
o Table
v -0.175000 -0.020000 0.175000
v -0.081699 0.020000 0.081699
v -0.175000 -0.020000 -0.175000
v -0.081699 0.020000 -0.081699
v 0.175000 -0.020000 0.175000
v 0.081699 0.020000 0.081699
v 0.175000 -0.020000 -0.175000
v 0.081699 0.020000 -0.081699
v -0.175000 0.020000 0.175000
v -0.175000 0.020000 -0.175000
v 0.175000 0.020000 -0.175000
v 0.175000 0.020000 0.175000
v -0.081699 0.060000 0.081699
v -0.081699 0.060000 -0.081699
v 0.081699 0.060000 -0.081699
v 0.081699 0.060000 0.081699
v -0.250000 0.548400 0.250000
v -0.250000 0.588400 0.250000
v -0.250000 0.548400 -0.250000
v -0.250000 0.588400 -0.250000
v 0.250000 0.548400 0.250000
v 0.250000 0.588400 0.250000
v 0.250000 0.548400 -0.250000
v 0.250000 0.588400 -0.250000
v -0.074303 0.080957 0.015000
v -0.074303 0.229563 0.015000
v -0.074303 0.080957 -0.015000
v -0.074303 0.229563 -0.015000
v 0.074303 0.080957 0.015000
v 0.074303 0.229563 0.015000
v 0.074303 0.080957 -0.015000
v 0.074303 0.229563 -0.015000
v -0.095260 0.060000 0.015000
v -0.095260 0.250520 0.015000
v -0.095260 0.250520 -0.015000
v -0.095260 0.060000 -0.015000
v 0.095260 0.060000 -0.015000
v 0.095260 0.250520 -0.015000
v 0.095260 0.250520 0.015000
v 0.095260 0.060000 0.015000
v -0.074303 0.526843 0.015000
v -0.074303 0.378237 0.015000
v -0.074303 0.526843 -0.015000
v -0.074303 0.378237 -0.015000
v 0.074303 0.526843 0.015000
v 0.074303 0.378237 0.015000
v 0.074303 0.526843 -0.015000
v 0.074303 0.378237 -0.015000
v -0.095260 0.547800 0.015000
v -0.095260 0.357280 0.015000
v -0.095260 0.357280 -0.015000
v -0.095260 0.547800 -0.015000
v 0.095260 0.547800 -0.015000
v 0.095260 0.357280 -0.015000
v 0.095260 0.357280 0.015000
v 0.095260 0.547800 0.015000
v 0.015000 0.229563 0.074303
v 0.015000 0.378203 0.074303
v -0.015000 0.229563 0.074303
v -0.015000 0.378203 0.074303
v 0.015000 0.229563 -0.074303
v 0.015000 0.378203 -0.074303
v -0.015000 0.229563 -0.074303
v -0.015000 0.378203 -0.074303
v 0.015000 0.208640 0.095260
v 0.015000 0.399160 0.095260
v -0.015000 0.399160 0.095260
v -0.015000 0.208640 0.095260
v -0.015000 0.208640 -0.095260
v -0.015000 0.399160 -0.095260
v 0.015000 0.399160 -0.095260
v 0.015000 0.208640 -0.095260
vn -1.0000 -0.0000 -0.0000
vn -0.0000 -0.0000 -1.0000
vn 1.0000 -0.0000 -0.0000
vn -0.0000 -0.0000 1.0000
vn -0.0000 -1.0000 -0.0000
vn -0.0000 1.0000 -0.0000
vt 0.785690 0.001501
vt 0.817904 0.033715
vt 0.283369 0.473567
vt 0.710550 0.108855
vt 0.001499 0.791818
vt 0.033714 0.759604
vt 0.503817 0.001501
vt 0.471602 0.033715
vt 0.283369 0.755440
vt 0.578957 0.108855
vt 0.001500 0.923411
vt 0.033714 0.955625
vt 0.785690 0.347803
vt 0.817904 0.315589
vt 0.001496 0.473567
vt 0.197521 0.791818
vt 0.710550 0.240449
vt 0.165307 0.759603
vt 0.471603 0.315589
vt 0.503817 0.347803
vt 0.001496 0.755440
vt 0.197521 0.923411
vt 0.578957 0.240449
vt 0.165307 0.955625
vt 0.785690 0.033715
vt 0.503817 0.033715
vt 0.503817 0.315589
vt 0.785690 0.315589
vt 0.033714 0.791818
vt 0.033714 0.923411
vt 0.165307 0.923411
vt 0.165307 0.791818
vt 0.436389 0.001495
vt 0.468603 0.033710
vt 0.842066 0.439566
vt 0.436389 0.033710
vt 0.033712 0.001495
vt 0.001498 0.033710
vt 0.842066 0.842242
vt 0.033712 0.033710
vt 0.436389 0.468600
vt 0.468603 0.436386
vt 0.439389 0.439566
vt 0.436389 0.436386
vt 0.001498 0.436386
vt 0.033712 0.468600
vt 0.439389 0.842242
vt 0.033712 0.436386
vt 0.340685 0.473567
vt 0.310530 0.473569
vt 0.837779 0.296082
vt 0.957459 0.296082
vt 0.340685 0.593247
vt 0.364846 0.473567
vt 0.286369 0.473569
vt 0.981624 0.650464
vt 0.981624 0.770143
vt 0.364846 0.593247
vt 0.837779 0.176402
vt 0.310530 0.593249
vt 0.957459 0.176402
vt 0.340685 0.712927
vt 0.310530 0.712929
vt 0.861944 0.650464
vt 0.286369 0.593249
vt 0.861944 0.770143
vt 0.364846 0.712927
vt 0.286369 0.712929
vt 0.510400 0.845620
vt 0.820901 0.312960
vt 0.663836 0.845620
vt 0.974337 0.312960
vt 0.663836 0.869781
vt 0.998502 0.787021
vt 0.510400 0.869781
vt 0.998502 0.633586
vt 0.970707 0.869781
vt 0.356964 0.869781
vt 0.845066 0.633586
vt 0.817272 0.869781
vt 0.845066 0.787021
vt 0.817272 0.845620
vt 0.974337 0.159524
vt 0.970707 0.845620
vt 0.356964 0.845620
vt 0.820901 0.159524
vt 0.591283 0.399871
vt 0.981626 0.334425
vt 0.471603 0.399871
vt 0.981626 0.454105
vt 0.471603 0.351550
vt 0.591283 0.375710
vt 0.861945 0.612128
vt 0.981625 0.612128
vt 0.471603 0.375710
vt 0.710963 0.399871
vt 0.861946 0.334425
vt 0.710963 0.351550
vt 0.861946 0.454105
vt 0.591283 0.351550
vt 0.861945 0.492448
vt 0.710963 0.375710
vt 0.981625 0.492448
vt 0.591283 0.375710
vt 0.817272 0.901625
vt 0.998504 0.317547
vt 0.663836 0.901625
vt 0.998504 0.470983
vt 0.663836 0.925786
vt 0.998503 0.629006
vt 0.817272 0.925786
vt 0.845067 0.629006
vt 0.356965 0.925786
vt 0.845067 0.475570
vt 0.510400 0.925786
vt 0.998503 0.475570
vt 0.510400 0.901625
vt 0.845068 0.470983
vt 0.356965 0.901625
vt 0.845068 0.317547
vt 0.710993 0.403557
vt 0.337690 0.473568
vt 0.337106 0.776488
vt 0.217398 0.776488
vt 0.591286 0.403557
vt 0.710993 0.427717
vt 0.313529 0.473568
vt 0.837784 0.138088
vt 0.837784 0.018381
vt 0.591286 0.427718
vt 0.337106 0.896168
vt 0.337690 0.593248
vt 0.217398 0.896168
vt 0.471606 0.403557
vt 0.337690 0.712956
vt 0.957464 0.138088
vt 0.313529 0.593248
vt 0.957464 0.018381
vt 0.471606 0.427717
vt 0.313529 0.712956
vt 0.356964 0.873623
vt 0.970707 0.873623
vt 0.353956 0.759610
vt 0.510400 0.873623
vt 0.200520 0.759610
vt 0.510400 0.897784
vt 0.820906 0.001503
vt 0.356964 0.897783
vt 0.970707 0.897783
vt 0.820906 0.154939
vt 0.817271 0.897783
vt 0.974342 0.154939
vt 0.663836 0.897783
vt 0.974342 0.001503
vt 0.663836 0.873623
vt 0.200520 0.913046
vt 0.817271 0.873623
vt 0.353956 0.913046
s 1
usemtl Material.001
f 1/1/1 9/25/1 10/26/1 3/7/1
f 3/8/2 10/26/2 11/27/2 7/19/2
f 7/20/3 11/27/3 12/28/3 5/13/3
f 5/14/4 12/28/4 9/25/4 1/2/4
f 3/9/5 7/21/5 5/15/5 1/3/5
f 6/16/3 8/22/3 15/31/3 16/32/3
f 2/4/6 4/10/6 10/26/6 9/25/6
f 4/10/6 8/23/6 11/27/6 10/26/6
f 8/23/6 6/17/6 12/28/6 11/27/6
f 6/17/6 2/4/6 9/25/6 12/28/6
f 15/31/6 14/30/6 13/29/6 16/32/6
f 4/11/1 2/5/1 13/29/1 14/30/1
f 2/6/4 6/18/4 16/32/4 13/29/4
f 8/24/2 4/12/2 14/30/2 15/31/2
f 17/33/1 18/36/1 20/40/1 19/37/1
f 19/38/2 20/40/2 24/48/2 23/45/2
f 23/46/3 24/48/3 22/44/3 21/41/3
f 21/42/4 22/44/4 18/36/4 17/34/4
f 19/39/5 23/47/5 21/43/5 17/35/5
f 24/48/6 20/40/6 18/36/6 22/44/6
f 33/69/1 34/71/1 35/73/1 36/75/1
f 25/49/3 27/54/3 28/58/3 26/53/3
f 37/77/3 38/80/3 39/82/3 40/84/3
f 31/65/6 27/55/6 25/50/6 29/60/6
f 36/75/5 37/78/5 40/85/5 33/69/5
f 38/80/6 35/73/6 34/71/6 39/82/6
f 25/51/4 26/52/4 34/72/4 33/70/4
f 28/57/2 27/56/2 36/76/2 35/74/2
f 27/56/2 31/64/2 37/79/2 36/76/2
f 32/66/2 28/57/2 35/74/2 38/81/2
f 31/64/2 32/66/2 38/81/2 37/79/2
f 30/61/4 29/59/4 40/86/4 39/83/4
f 29/59/4 25/51/4 33/70/4 40/86/4
f 26/52/4 30/61/4 39/83/4 34/72/4
f 28/58/5 32/67/5 30/62/5 26/53/5
f 31/65/1 29/60/1 30/63/1 32/68/1
f 49/105/1 52/111/1 51/109/1 50/107/1
f 41/87/3 42/89/3 44/95/3 43/92/3
f 53/113/3 56/119/3 55/117/3 54/115/3
f 47/102/5 45/96/5 41/87/5 43/92/5
f 54/115/5 55/117/5 50/107/5 51/109/5
f 41/88/4 49/106/4 50/108/4 42/90/4
f 44/94/2 51/110/2 52/112/2 43/93/2
f 43/93/2 52/112/2 53/114/2 47/101/2
f 48/103/2 54/116/2 51/110/2 44/94/2
f 47/101/2 53/114/2 54/116/2 48/103/2
f 46/99/4 55/118/4 56/120/4 45/97/4
f 45/97/4 56/120/4 49/106/4 41/88/4
f 42/90/4 50/108/4 55/118/4 46/99/4
f 44/95/6 42/91/6 46/100/6 48/104/6
f 47/102/1 48/104/1 46/100/1 45/98/1
f 65/141/4 66/144/4 67/146/4 68/148/4
f 57/121/2 59/126/2 60/130/2 58/125/2
f 69/151/2 70/153/2 71/155/2 72/157/2
f 63/137/6 59/127/6 57/122/6 61/132/6
f 68/149/5 69/151/5 72/157/5 65/142/5
f 70/153/6 67/146/6 66/144/6 71/155/6
f 57/123/3 58/124/3 66/145/3 65/143/3
f 60/129/1 59/128/1 68/150/1 67/147/1
f 59/128/1 63/136/1 69/152/1 68/150/1
f 64/138/1 60/129/1 67/147/1 70/154/1
f 63/136/1 64/138/1 70/154/1 69/152/1
f 62/133/3 61/131/3 72/158/3 71/156/3
f 61/131/3 57/123/3 65/143/3 72/158/3
f 58/124/3 62/133/3 71/156/3 66/145/3
f 60/130/5 64/139/5 62/134/5 58/125/5
f 63/137/4 61/132/4 62/135/4 64/140/4
