# Blender v2.93.6 OBJ File: ''
# www.blender.org
mtllib Cosmonaut_Mesh_LOD7.mtl
o Cube_Cube.001
v -0.163799 2.712834 3.344757
v 0.056730 2.565382 2.108142
v 0.661491 2.581034 3.006284
v -0.029301 2.342523 2.471172
v -0.167099 2.710556 3.363901
v 0.743314 3.134141 1.002817
v 0.007442 2.815075 -0.563322
v -0.006278 3.113340 0.015425
v 0.093419 2.309299 0.123809
v 0.121981 2.299446 -0.148142
v 0.086157 2.412064 -0.034972
v 0.007636 3.040834 -0.231566
v 0.022805 2.591223 -0.482174
v 0.004871 2.840463 -0.579057
v 0.030081 2.530674 -0.365861
v 0.136518 2.269756 -0.116885
v 0.022441 2.593812 -0.487410
v 1.005715 2.068229 -1.423089
v 0.103048 3.472611 1.845705
v -0.161757 2.719810 3.334037
v -0.531092 3.912454 3.120982
v -0.162909 2.630589 3.322887
v 0.050122 2.530977 2.139378
v -0.165072 2.715598 3.352880
v -0.438841 3.378019 1.353368
v 0.099454 3.476038 1.829505
v -0.132621 2.485402 3.113698
v 0.090377 3.740196 2.038230
v 0.052233 2.527097 2.122024
v -0.164852 2.623948 3.333091
v 0.037002 2.480947 2.149857
v -0.172942 2.627822 3.381924
v 0.047648 2.468163 2.096637
v 0.029290 3.242375 0.789057
v 0.077600 2.357888 0.879598
v 0.005065 3.187873 0.427650
v 0.089315 2.372258 0.531485
v -0.664522 2.775771 1.483783
v -0.673734 2.003102 -0.983829
v 0.055903 2.515949 2.060414
v 0.054285 2.568210 2.129145
v 0.032935 2.482983 2.169167
v -0.275588 2.697344 3.390131
v -0.173108 2.708124 3.399106
v 0.078514 2.369064 -0.001896
v 0.085874 2.323769 0.050119
v -0.010217 3.086387 -0.121943
v -0.008191 3.099740 -0.052991
v 0.134565 2.350969 -0.100082
v 0.111770 2.389282 -0.058850
v 0.006966 2.844713 -0.516538
v 0.007894 2.874382 -0.468649
v -0.103308 2.834372 -0.576284
v 0.002230 3.161028 0.290564
v -0.001387 3.136243 0.153151
v 0.094386 2.327492 0.260658
v 0.093419 2.354351 0.394851
v 0.042878 2.944771 0.815706
v 0.666566 2.353245 0.331235
v 0.452026 2.392471 0.668573
v 0.605605 2.486259 0.667743
v 0.607386 2.407033 0.482128
vt 0.051905 0.948885
vt 0.043550 0.950884
vt 0.040129 0.964773
vt 0.068771 0.962386
vt 0.059224 0.964773
vt 0.030582 0.962386
vt 0.030582 0.964773
vt 0.161230 0.951492
vt 0.165374 0.951345
vt 0.165758 0.952417
vt 0.381321 0.956100
vt 0.381321 0.956100
vt 0.381321 0.956100
vt 0.166935 0.951021
vt 0.165758 0.951021
vt 0.166935 0.951021
vt 0.212726 0.941440
vt 0.220374 0.956489
vt 0.218178 0.949795
vt 0.253772 0.946517
vt 0.234048 0.927225
vt 0.226941 0.929002
vt 0.226941 0.927225
vt 0.157521 0.961830
vt 0.157522 0.960654
vt 0.157521 0.961830
vt 0.129281 0.951021
vt 0.137472 0.951882
vt 0.129298 0.951021
vt 0.212726 0.948547
vt 0.133896 0.951996
vt 0.130458 0.951021
vt 0.225495 0.938677
vt 0.359375 0.957031
vt 0.390034 0.957031
vt 0.390094 0.957031
vt 0.214503 0.941440
vt 0.212726 0.948547
vt 0.212726 0.948547
vt 0.215592 0.959827
vt 0.214288 0.948547
vt 0.212726 0.948547
vt 0.212726 0.948547
vt 0.212726 0.948547
vt 0.212726 0.948547
vt 0.233491 0.952223
vt 0.233491 0.952223
vt 0.233491 0.952223
vt 0.233491 0.952223
vt 0.233491 0.952223
vt 0.233491 0.952223
vt 0.233491 0.952223
vt 0.233491 0.952223
vt 0.233491 0.952223
vt 0.233491 0.952223
vt 0.233491 0.952223
vt 0.068771 0.964773
vt 0.381321 0.956100
vt 0.381321 0.956100
vt 0.233491 0.952223
vt 0.233491 0.952223
vt 0.381321 0.956100
vt 0.212726 0.967761
vt 0.214503 0.967761
vt 0.245980 0.966826
vt 0.257341 0.948709
vt 0.212726 0.962761
vt 0.212726 0.962761
vt 0.381321 0.956100
vt 0.212726 0.962761
vt 0.212726 0.962761
vt 0.381321 0.956100
vt 0.129281 0.952417
vt 0.068771 0.955608
vt 0.212726 0.948547
vt 0.222905 0.963460
vt 0.212726 0.962761
vt 0.212726 0.962761
vt 0.212726 0.962761
vt 0.212726 0.948547
vt 0.212726 0.948547
vt 0.212726 0.948547
vt 0.215829 0.959298
vt 0.233491 0.952223
vt 0.233491 0.952223
vt 0.233491 0.952223
vt 0.233491 0.952223
vt 0.212726 0.962761
vt 0.212726 0.962761
vt 0.233491 0.952223
vt 0.233491 0.952223
vt 0.233491 0.952223
vt 0.212726 0.962761
vt 0.212726 0.962761
vt 0.157521 0.957275
vt 0.157522 0.960654
vt 0.165758 0.951021
vt 0.233491 0.952223
vt 0.380056 0.953132
vt 0.380765 0.953132
vt 0.380056 0.953132
vt 0.030582 0.962386
vt 0.233491 0.952223
vt 0.233491 0.952223
vt 0.233491 0.952223
vt 0.233491 0.952223
vt 0.233491 0.952223
vt 0.233491 0.952223
vt 0.630839 0.957420
vt 0.633057 0.978601
vt 0.636626 0.946350
vt 0.233491 0.952223
vt 0.233491 0.952223
vt 0.380056 0.959307
vt 0.380872 0.959306
vt 0.380056 0.959307
vt 0.380827 0.953132
vt 0.138695 0.961830
vt 0.138695 0.957306
vt 0.138695 0.961830
vt 0.157521 0.960654
vt 0.157521 0.957251
vt 0.262487 0.967761
vt 0.267807 0.967761
vt 0.499929 0.971830
vt 0.504063 0.972350
vt 0.503969 0.953831
vt 0.138695 0.957284
vt 0.138695 0.960654
vt 0.030582 0.964773
vt 0.380691 0.959306
vt 0.498082 0.957114
vt 0.381321 0.956100
vt 0.381321 0.956100
vt 0.157521 0.961830
vt 0.381321 0.956100
vn -0.2102 -0.9759 0.0583
vn -0.4798 -0.8197 0.3130
vn -0.6367 0.4662 0.6142
vn -0.3592 -0.7153 -0.5994
vn 0.1782 -0.6621 0.7279
vn 0.1045 -0.7940 0.5988
vn 0.9782 -0.1576 0.1351
vn 0.3670 -0.3558 0.8595
vn -0.0457 -0.1833 0.9820
vn -0.0493 -0.5820 0.8117
vn -0.9940 -0.0059 0.1090
vn -0.9934 -0.1146 0.0029
vn -0.8995 -0.4161 -0.1332
vn 0.9856 -0.0335 0.1659
vn 0.0565 0.9964 0.0638
vn 0.1434 0.9687 -0.2028
vn 0.1186 0.9683 -0.2199
vn 0.7082 0.5232 0.4740
vn 0.9893 0.0666 0.1302
vn 0.8693 0.1155 0.4806
vn 0.9685 0.1740 -0.1781
vn 0.3677 0.9181 -0.1477
vn 0.8832 0.2859 0.3717
vn 0.7270 0.1901 -0.6598
vn 0.1335 0.9831 -0.1256
vn -0.9113 -0.3365 0.2374
vn 0.2089 -0.8389 -0.5025
vn 0.2254 -0.8943 0.3865
vn 0.2725 0.3081 0.9115
vn 0.3478 -0.2798 0.8949
vn 0.6563 0.4006 -0.6394
vn 0.4337 0.8904 -0.1379
vn -0.7948 0.5709 -0.2059
vn -0.9743 0.2020 0.0995
vn 0.0913 0.9545 -0.2838
vn 0.6419 -0.6217 0.4487
vn 0.6280 -0.7409 0.2381
vn 0.2575 -0.9645 0.0578
vn -0.4015 0.8740 0.2739
vn -0.7678 0.5483 -0.3315
vn -0.3839 0.8785 -0.2845
vn 0.0108 0.9815 -0.1909
vn -0.8922 -0.2517 -0.3750
vn -0.1752 0.6272 -0.7589
vn 0.2002 0.9652 -0.1682
vn 0.2100 0.9606 -0.1823
vn 0.2122 0.9600 -0.1827
vn 0.9059 0.0003 -0.4236
vn -0.8546 0.4106 0.3179
vn 0.6048 0.6755 -0.4218
vn 0.5023 0.7880 -0.3559
vn 0.3588 0.8910 -0.2782
vn 0.2267 0.9548 -0.1924
vn 0.5263 -0.7682 -0.3646
vn 0.9873 -0.0460 -0.1518
vn -0.9907 -0.1127 0.0768
vn -0.9912 -0.1045 0.0810
vn -0.7854 -0.6146 -0.0740
vn -0.9354 -0.3230 0.1435
vn -0.9968 -0.0801 -0.0073
vn -0.9961 -0.0876 0.0033
vn -0.9973 -0.0706 -0.0207
vn -0.9956 -0.0934 0.0115
vn 0.0900 -0.9750 -0.2031
vn 0.5439 -0.7554 -0.3655
vn 0.3526 0.9244 -0.1455
vn 0.4816 0.3248 -0.8140
vn 0.4638 0.8859 -0.0103
vn -0.9974 -0.0488 -0.0525
vn -0.9976 -0.0694 -0.0068
vn -0.9871 -0.0012 -0.1602
vn 0.8414 0.3012 -0.4487
vn 0.9081 -0.2058 -0.3647
vn 0.5288 0.8465 0.0618
vn 0.2561 -0.9651 0.0553
vn 0.8192 -0.5303 0.2182
vn -0.6229 0.4373 -0.6487
vn 0.7492 0.3663 -0.5518
vn -0.5271 -0.5072 0.6818
vn -0.3484 -0.7188 0.6016
vn 0.7280 -0.3927 -0.5620
vn -0.7375 0.5836 0.3398
vn -0.1388 0.7279 -0.6715
vn 0.4744 -0.8803 -0.0005
vn 0.4056 -0.9140 -0.0123
vn -0.7822 -0.5299 -0.3276
vn -0.0617 0.9219 -0.3825
vn -0.7957 0.3285 -0.5089
vn 0.6343 -0.5336 -0.5594
vn -0.9960 0.0852 -0.0272
vn -0.1773 -0.7352 -0.6543
vn -0.6767 -0.4911 0.5485
vn -0.8184 0.4701 -0.3305
vn -0.1598 -0.9686 0.1902
vn -0.6306 -0.7713 -0.0869
vn -0.2489 -0.8003 0.5455
vn 0.1969 0.9655 -0.1702
vn 0.1940 0.9666 -0.1676
vn 0.5976 0.6900 -0.4083
vn 0.6214 0.6572 -0.4266
vn -0.3230 -0.9451 -0.0497
vn -0.1290 -0.9886 0.0780
vn -0.5577 -0.8033 -0.2089
vn -0.7485 -0.5489 -0.3721
vn -0.9946 -0.0924 0.0464
vn -0.9947 -0.0923 0.0462
vn -0.9978 -0.0518 0.0420
vn -0.9977 -0.0544 0.0397
vn -0.9979 -0.0535 0.0365
vn 0.0652 -0.9803 0.1862
vn 0.0845 -0.9769 0.1961
vn 0.8127 0.3778 0.4436
vn 0.5189 -0.6995 0.4913
vn -0.8404 -0.1692 -0.5148
vn 0.7792 -0.2625 0.5692
vn -0.9951 -0.0901 0.0399
vn -0.9953 -0.0872 0.0411
vn -0.9954 -0.0859 0.0417
vn -0.9949 -0.0929 0.0388
vn 0.6393 -0.7295 0.2432
vn -0.0831 -0.9947 -0.0608
vn 0.2576 -0.5183 0.8155
vn 0.0398 -0.9037 0.4264
vn -0.2367 -0.9518 -0.1950
vn 0.8675 -0.4193 -0.2676
vn 0.9964 0.0398 -0.0743
vn 0.9966 0.0390 -0.0727
vn 0.1550 0.9789 0.1332
vn 0.0314 0.9819 -0.1866
vn -0.7252 -0.1683 0.6677
vn -0.7296 -0.3024 0.6133
vn -0.5124 0.4668 0.7208
vn 0.0188 0.9811 -0.1925
vn 0.0824 0.9824 -0.1679
vn 0.0070 0.9814 -0.1919
vn -0.8187 0.4695 -0.3305
vn 0.2053 0.8277 -0.5223
vn 0.1703 -0.2776 -0.9455
vn -0.2761 -0.9453 0.1736
vn -0.3959 -0.9153 0.0745
vn -0.4441 -0.8956 0.0273
vn -0.3309 -0.9337 0.1369
vn 0.2316 0.9529 -0.1959
vn 0.4269 -0.5242 -0.7369
vn -0.4527 -0.8148 -0.3621
vn -0.4082 -0.8165 -0.4082
vn -0.3743 -0.8733 -0.3119
vn 0.9975 0.0612 0.0366
vn 0.9974 0.0629 0.0362
vn -0.3460 -0.9297 0.1260
vn 0.7637 0.4081 0.5002
vn 0.3612 0.9274 0.0973
vn 0.6585 0.6743 0.3342
vn -0.7867 -0.1264 0.6043
vn -0.7465 0.4267 0.5105
vn -0.5410 -0.6860 0.4866
vn -0.4261 -0.9033 0.0490
vn -0.4753 -0.8723 0.1145
vn -0.4574 0.1161 -0.8817
vn 0.1156 -0.9835 -0.1389
vn -0.1058 0.1938 0.9753
vn 0.0530 0.9825 -0.1786
vn 0.6139 0.6657 -0.4243
vn 0.4903 -0.7999 0.3461
vn -0.0917 -0.9791 0.1813
vn -0.3496 0.1206 -0.9291
vn -0.5222 -0.8512 -0.0527
vn -0.5630 -0.8155 -0.1339
vn -0.9728 0.1511 -0.1754
vn -0.1287 -0.9698 0.2072
vn 0.5835 -0.6256 0.5179
vn -0.8363 -0.2331 -0.4963
vn 0.4428 0.3246 0.8358
vn 0.0884 -0.9723 0.2164
vn -0.7430 0.2774 0.6091
vn -0.4373 -0.8875 0.1452
vn -0.3771 -0.7153 -0.5884
vn 0.1943 0.9680 -0.1590
vn -0.9952 -0.0882 0.0426
vn -0.9916 -0.1187 0.0512
vn -0.9926 -0.1114 0.0487
vn -0.9856 0.0335 -0.1659
vn -0.0650 0.9554 -0.2880
vn 0.5484 -0.7482 0.3735
vn -0.9886 -0.1398 0.0561
usemtl AstroMat
s 1
f 3/1/1 38/2/2 4/3/3
f 20/4/4 27/5/5 3/1/6
f 41/6/7 4/3/7 2/7/7
f 3/8/8 43/9/9 32/10/10
f 14/11/11 17/12/12 15/13/13
f 5/14/14 24/15/14 44/16/14
f 26/17/15 6/18/16 25/19/17
f 21/20/18 6/18/19 28/21/20
f 28/21/21 19/22/21 26/23/21
f 30/24/14 22/25/14 32/26/14
f 29/27/22 3/28/23 40/29/24
f 25/19/17 6/18/16 34/30/25
f 27/5/26 20/4/26 38/2/26
f 41/6/27 4/3/27 38/2/27
f 43/9/28 5/14/29 24/15/30
f 40/29/24 38/31/31 23/32/32
f 25/33/33 21/20/34 19/22/35
f 35/34/36 6/35/37 38/36/38
f 26/17/15 25/19/17 19/37/39
f 29/27/22 40/29/24 23/32/32
f 47/38/40 25/19/41 48/39/42
f 39/40/43 25/19/33 53/41/44
f 6/18/45 54/42/46 36/43/47
f 6/18/48 7/44/49 51/45/50
f 6/18/51 47/38/52 48/39/53
f 15/46/13 11/47/54 45/48/55
f 15/46/13 46/49/56 9/50/57
f 15/46/13 45/48/55 46/49/56
f 50/51/58 15/46/13 49/52/59
f 58/53/60 57/54/61 37/55/62
f 57/54/61 58/53/60 56/56/63
f 3/1/1 27/5/64 38/2/2
f 20/4/14 1/57/14 27/5/14
f 41/6/65 3/1/65 4/3/65
f 13/58/66 18/59/67 17/12/68
f 15/46/69 47/60/70 12/61/71
f 14/11/72 6/62/48 17/12/73
f 26/17/15 19/37/74 6/18/16
f 29/63/75 6/18/37 23/64/76
f 28/21/77 6/18/77 19/22/77
f 29/27/22 23/32/78 3/28/23
f 3/65/23 6/18/19 21/66/18
f 39/40/43 10/67/79 49/68/80
f 39/69/81 13/58/82 17/12/83
f 39/40/43 11/70/84 45/71/85
f 17/12/86 53/72/44 14/11/87
f 19/22/88 21/20/88 28/21/88
f 33/73/89 38/31/31 40/29/24
f 38/2/90 20/4/91 43/74/92
f 25/19/41 47/38/40 12/75/93
f 38/76/90 46/77/94 9/78/95
f 39/40/43 50/79/96 11/70/84
f 55/80/97 6/18/45 8/81/98
f 12/75/99 6/18/51 52/82/100
f 18/83/101 9/78/102 46/77/103
f 18/83/101 46/77/103 45/71/104
f 15/46/69 48/84/105 47/60/70
f 15/46/69 8/85/106 48/84/105
f 15/46/13 52/86/107 51/87/108
f 15/46/13 12/61/109 52/86/107
f 56/88/110 18/83/101 57/89/111
f 50/79/112 18/83/113 11/70/114
f 50/79/112 49/68/115 18/83/113
f 58/53/116 54/90/117 55/91/118
f 58/53/116 36/92/119 54/90/117
f 6/18/37 35/93/36 37/94/120
f 3/95/8 32/96/10 22/25/121
f 3/65/23 23/64/78 6/18/19
f 24/15/122 3/8/123 44/97/124
f 17/12/73 6/62/48 13/58/125
f 58/53/126 36/92/127 34/98/127
f 14/99/87 53/100/44 7/101/128
f 36/43/129 25/19/17 34/30/25
f 38/2/130 42/102/131 41/6/132
f 36/43/129 54/42/133 25/19/17
f 25/19/41 55/80/134 8/81/135
f 12/75/93 52/82/136 25/19/41
f 53/41/44 51/45/137 7/44/128
f 25/19/41 8/81/135 48/39/42
f 39/103/43 53/104/44 13/105/138
f 57/89/139 37/94/140 38/76/141
f 56/88/142 57/89/139 38/76/141
f 48/39/53 8/81/143 6/18/51
f 18/106/67 13/105/66 6/107/37
f 10/108/144 49/52/59 15/46/13
f 15/46/13 50/51/58 11/47/54
f 59/109/145 62/110/146 60/111/147
f 58/53/148 35/112/149 37/55/149
f 38/76/141 9/78/150 56/88/142
f 56/88/110 9/78/102 18/83/101
f 51/87/108 7/113/151 15/46/13
f 16/114/152 18/115/67 10/116/153
f 14/99/72 7/101/49 6/117/48
f 3/1/154 41/6/155 42/102/156
f 31/118/157 38/119/130 33/120/158
f 20/121/91 22/25/159 43/122/92
f 24/15/30 44/97/160 43/9/28
f 17/12/86 13/58/138 53/72/44
f 21/66/34 43/123/92 44/124/161
f 55/80/134 25/19/41 54/42/162
f 50/79/96 39/40/43 49/68/80
f 52/82/100 6/18/51 51/45/163
f 39/40/43 38/76/90 25/19/33
f 55/80/97 54/42/46 6/18/45
f 6/18/51 12/75/99 47/38/52
f 62/125/164 61/126/164 60/127/164
f 5/14/29 3/8/123 24/15/122
f 31/118/165 3/128/154 42/129/156
f 3/95/6 22/25/166 20/121/4
f 31/118/157 42/129/131 38/119/130
f 38/76/141 37/94/140 35/93/167
f 43/122/9 22/25/168 32/96/10
f 29/63/75 38/76/38 6/18/37
f 31/130/169 42/102/169 41/6/169 2/7/169
f 5/14/29 43/9/28 3/8/123
f 31/118/165 33/120/170 3/128/154
f 49/68/115 10/67/171 18/83/113
f 18/83/113 45/71/172 11/70/114
f 3/28/23 33/73/89 40/29/24
f 21/66/18 44/124/173 3/65/23
f 16/114/174 10/116/175 39/131/81
f 29/63/75 23/64/176 38/76/38
f 62/125/146 59/132/145 60/127/147
f 17/12/12 16/133/177 15/13/13
f 15/13/13 7/134/151 14/11/11
f 17/12/83 16/133/174 39/69/81
f 36/43/47 34/30/178 6/18/45
f 21/66/34 25/19/33 38/76/90
f 21/66/34 38/76/90 43/123/92
f 55/91/179 8/85/179 15/46/180 58/53/181
f 22/25/182 30/24/182 1/135/182 20/121/182
f 15/13/13 16/133/177 10/136/144
f 17/12/68 18/59/67 16/133/152
f 52/82/183 51/45/183 53/41/44 25/19/33
f 38/76/90 39/40/43 45/71/85 46/77/94
f 6/18/37 37/94/120 57/89/184 18/83/67
f 56/56/185 58/53/181 15/46/180 9/50/185
