# Blender v2.93.6 OBJ File: ''
# www.blender.org
mtllib Cosmonaut_Mesh_LOD5.mtl
o Cube_Cube.001
v -0.163799 2.712834 3.344757
v 0.056730 2.565382 2.108142
v 0.231200 2.744556 3.406249
v 0.512859 2.495622 2.361618
v -0.029301 2.342523 2.471172
v 0.827351 3.300567 2.768333
v 0.585835 3.678713 2.248334
v 0.516874 2.551814 3.016527
v -0.167099 2.710556 3.363901
v 0.255995 2.589376 1.979159
v 0.696932 2.415739 1.125300
v 0.768296 2.479036 1.482798
v 0.747648 2.577947 1.179464
v 0.755719 3.463239 1.587354
v 2.277960 2.572158 0.496065
v 2.213742 2.387962 0.360484
v 2.369537 2.247328 1.016682
v 2.750842 2.152118 1.020567
v 0.563687 3.256794 1.880373
v 0.499091 3.135722 1.036752
v 0.186458 2.907082 -0.621939
v 0.007442 2.815075 -0.563322
v -0.006278 3.113340 0.015425
v 0.093419 2.309299 0.123809
v 0.121981 2.299446 -0.148142
v 0.086157 2.412064 -0.034972
v 0.007636 3.040834 -0.231566
v 0.022805 2.591223 -0.482174
v 0.004871 2.840463 -0.579057
v 0.023448 2.626830 -0.419643
v 0.136518 2.269756 -0.116885
v 0.022441 2.593812 -0.487410
v 0.229702 2.314019 -0.237783
v 1.097662 2.319134 -1.822044
v 0.413473 2.463454 -1.594908
v 0.725309 2.739225 -1.902115
v 0.854599 1.908064 -2.508536
v 0.103048 3.472611 1.845705
v -0.161757 2.719810 3.334037
v 0.300489 3.831190 3.153701
v -0.162909 2.630589 3.322887
v 0.050122 2.530977 2.139378
v -0.165072 2.715598 3.352880
v -0.050986 3.494401 1.764382
v 0.128726 2.342185 0.878548
v 0.856973 2.039122 -1.743682
v 0.099454 3.476038 1.829505
v -0.696926 3.436072 3.135208
v -0.132621 2.485402 3.113698
v -0.845458 3.506263 2.532869
v 0.090377 3.740196 2.038230
v -0.271559 4.000464 2.436307
v 0.052233 2.527097 2.122024
v -0.164852 2.623948 3.333091
v 0.037002 2.480947 2.149857
v -0.172942 2.627822 3.381924
v -0.616465 2.523438 2.977538
v 0.047648 2.468163 2.096637
v -0.434015 3.385803 1.709044
v -0.205823 2.711611 1.969063
v 0.029290 3.242375 0.789057
v 0.077600 2.357888 0.879598
v -0.624151 2.588712 1.573913
v -0.847784 2.978504 1.075908
v 0.005065 3.187873 0.427650
v 0.089315 2.372258 0.531485
v -2.257615 2.815432 2.613965
v -1.951609 3.019876 2.760357
v -2.524683 2.831733 3.294593
v -2.091167 2.946197 3.332250
v -0.798054 2.861205 1.170583
v -1.532281 1.977993 -1.845373
v -1.530218 2.494113 -2.268871
v -0.500130 2.524029 2.200466
v 0.055903 2.515949 2.060414
v -0.240471 3.086771 3.501546
v 0.054285 2.568210 2.129145
v 0.032935 2.482983 2.169167
v -0.275588 2.697344 3.390131
v -0.173108 2.708124 3.399106
v -1.007461 2.383281 -2.176591
v -1.744655 1.472670 -2.261291
v 0.078514 2.369064 -0.001896
v 0.085874 2.323769 0.050119
v -0.010217 3.086387 -0.121943
v -0.008191 3.099740 -0.052991
v 0.134565 2.350969 -0.100082
v 0.111770 2.389282 -0.058850
v 0.006966 2.844713 -0.516538
v 0.007894 2.874382 -0.468649
v 0.023579 2.619251 -0.410187
v -1.838209 2.721905 2.750513
v -0.141717 2.250561 -0.154998
v -0.103308 2.834372 -0.576284
v 0.002230 3.161028 0.290564
v -0.001387 3.136243 0.153151
v 0.094386 2.327492 0.260658
v 0.093419 2.354351 0.394851
v -0.197514 2.321092 0.821193
v 0.562812 2.500508 -0.139146
v 2.081892 2.361905 0.832144
v 0.042878 2.944771 0.815706
v 0.588810 3.724387 -0.173054
v 0.760260 3.428642 1.739707
v 0.639913 3.827052 1.777133
v 0.755501 3.389763 0.529633
v 0.934903 3.398304 0.173561
v 1.075344 3.102253 -0.018961
v 0.978600 2.685871 0.027005
v 1.010329 2.621105 0.000550
v 0.643171 2.344269 0.285090
v 0.642132 2.320951 0.427070
v 0.452026 2.392471 0.668573
v 0.636530 2.317557 0.297247
v 0.605605 2.486259 0.667743
v 0.607386 2.407033 0.482128
v -0.697805 3.584281 -0.102240
v 0.700624 3.308694 0.116714
v 0.718048 3.516928 0.548349
v -0.638197 3.075662 -0.027645
v -0.780163 3.294805 0.478605
v -0.874664 2.831918 0.040476
v -0.677687 3.217529 0.576266
v -0.788860 3.333689 0.402199
v -0.941048 2.589582 0.157718
v -0.793873 2.466021 0.104579
v -0.514182 3.455505 1.718256
v -0.385913 3.808239 1.834107
v -0.368529 2.221859 0.416481
v -0.811083 2.327472 0.209227
vt 0.036399 0.949606
vt 0.057644 0.950949
vt 0.040129 0.964773
vt 0.068771 0.962386
vt 0.059224 0.964773
vt 0.051184 0.948314
vt 0.030582 0.962386
vt 0.030582 0.964773
vt 0.161230 0.951492
vt 0.165374 0.951345
vt 0.165758 0.952417
vt 0.218742 0.948547
vt 0.219833 0.948844
vt 0.219487 0.948548
vt 0.235984 0.939077
vt 0.226941 0.933509
vt 0.226941 0.929002
vt 0.381321 0.956100
vt 0.381321 0.956100
vt 0.381321 0.956100
vt 0.166935 0.951021
vt 0.165758 0.951021
vt 0.166935 0.951021
vt 0.212726 0.941440
vt 0.219124 0.951883
vt 0.215306 0.947918
vt 0.245461 0.932811
vt 0.234048 0.927225
vt 0.226941 0.927225
vt 0.157521 0.961830
vt 0.157522 0.960654
vt 0.157521 0.961830
vt 0.129281 0.951021
vt 0.137472 0.951882
vt 0.129298 0.951021
vt 0.212726 0.948547
vt 0.035658 0.950847
vt 0.219833 0.948599
vt 0.219833 0.948653
vt 0.221986 0.951229
vt 0.133896 0.951996
vt 0.130458 0.951021
vt 0.226941 0.933509
vt 0.359375 0.957031
vt 0.371819 0.957031
vt 0.390202 0.957031
vt 0.214503 0.941440
vt 0.212726 0.948547
vt 0.212726 0.948547
vt 0.219833 0.951671
vt 0.216127 0.962761
vt 0.219833 0.953524
vt 0.214263 0.950410
vt 0.214288 0.948547
vt 0.219833 0.962660
vt 0.219121 0.962761
vt 0.219025 0.962639
vt 0.219833 0.962761
vt 0.214510 0.948547
vt 0.212726 0.948547
vt 0.212726 0.948547
vt 0.212726 0.948547
vt 0.212726 0.948547
vt 0.219833 0.951385
vt 0.214274 0.950135
vt 0.219833 0.955654
vt 0.219060 0.962754
vt 0.219829 0.962758
vt 0.233491 0.952223
vt 0.233491 0.952223
vt 0.233491 0.952223
vt 0.233491 0.952223
vt 0.233491 0.952223
vt 0.233491 0.952223
vt 0.233491 0.952223
vt 0.233491 0.952223
vt 0.233491 0.952223
vt 0.233491 0.952223
vt 0.218816 0.962761
vt 0.215612 0.962761
vt 0.219833 0.948813
vt 0.219833 0.962768
vt 0.233491 0.952223
vt 0.233491 0.952223
vt 0.233491 0.952223
vt 0.233491 0.952223
vt 0.218768 0.962761
vt 0.253581 0.961031
vt 0.233386 0.959250
vt 0.238513 0.957055
vt 0.238371 0.953301
vt 0.256752 0.948511
vt 0.230524 0.943126
vt 0.230578 0.943212
vt 0.231289 0.961908
vt 0.253136 0.961174
vt 0.238371 0.957055
vt 0.257206 0.948800
vt 0.237851 0.953455
vt 0.238746 0.953850
vt 0.068771 0.964773
vt 0.381321 0.956100
vt 0.381321 0.956100
vt 0.233491 0.952223
vt 0.233491 0.952223
vt 0.381321 0.956100
vt 0.217431 0.962767
vt 0.390033 0.957031
vt 0.390625 0.957031
vt 0.390001 0.957031
vt 0.212726 0.967761
vt 0.215507 0.962761
vt 0.214503 0.967761
vt 0.065500 0.948480
vt 0.260580 0.966703
vt 0.244360 0.965803
vt 0.241811 0.952053
vt 0.258972 0.945089
vt 0.224408 0.967691
vt 0.259509 0.941440
vt 0.256594 0.953321
vt 0.214201 0.962755
vt 0.212726 0.962761
vt 0.212726 0.962761
vt 0.381321 0.956100
vt 0.212726 0.962761
vt 0.212726 0.962761
vt 0.381321 0.956100
vt 0.129281 0.952417
vt 0.068771 0.955608
vt 0.212726 0.948547
vt 0.233491 0.952223
vt 0.233491 0.952223
vt 0.233491 0.952223
vt 0.233491 0.952223
vt 0.216183 0.962761
vt 0.212726 0.962761
vt 0.212726 0.962761
vt 0.212726 0.962761
vt 0.212726 0.948547
vt 0.212726 0.948547
vt 0.212726 0.948547
vt 0.212836 0.962761
vt 0.212746 0.962761
vt 0.233491 0.952223
vt 0.233491 0.952223
vt 0.233491 0.952223
vt 0.233491 0.952223
vt 0.233491 0.952223
vt 0.233491 0.952223
vt 0.212726 0.962761
vt 0.212726 0.962761
vt 0.233491 0.952223
vt 0.233491 0.952223
vt 0.233491 0.952223
vt 0.219833 0.962756
vt 0.635043 0.976044
vt 0.628420 0.966044
vt 0.630142 0.944756
vt 0.635861 0.966038
vt 0.631554 0.944286
vt 0.637352 0.948177
vt 0.629995 0.941915
vt 0.628728 0.969327
vt 0.632816 0.973707
vt 0.637658 0.952864
vt 0.631273 0.943764
vt 0.637239 0.955399
vt 0.630508 0.945854
vt 0.212726 0.962761
vt 0.212726 0.962761
vt 0.219833 0.955584
vt 0.219833 0.948650
vt 0.219833 0.962761
vt 0.157521 0.957275
vt 0.157522 0.960654
vt 0.229699 0.967417
vt 0.165758 0.951021
vt 0.233491 0.952223
vt 0.219833 0.949191
vt 0.219833 0.962761
vt 0.217421 0.962762
vt 0.380056 0.953132
vt 0.380765 0.953132
vt 0.380056 0.953132
vt 0.030582 0.962386
vt 0.233491 0.952223
vt 0.633057 0.978601
vt 0.636626 0.946350
vt 0.630123 0.965443
vt 0.634127 0.976072
vt 0.632956 0.953699
vt 0.635314 0.940802
vt 0.233491 0.952223
vt 0.233491 0.952223
vt 0.380088 0.959307
vt 0.383134 0.959305
vt 0.380056 0.959307
vt 0.380056 0.959307
vt 0.380827 0.953132
vt 0.244784 0.949159
vt 0.249069 0.967080
vt 0.138695 0.961830
vt 0.138695 0.957306
vt 0.138695 0.961830
vt 0.266707 0.960626
vt 0.157521 0.960654
vt 0.157521 0.957251
vt 0.262487 0.967761
vt 0.267807 0.967761
vt 0.634787 0.944522
vt 0.499929 0.971830
vt 0.504063 0.972350
vt 0.503969 0.953831
vt 0.138695 0.957284
vt 0.138695 0.960654
vt 0.383144 0.956219
vt 0.383144 0.959306
vt 0.383144 0.953191
vt 0.212774 0.962761
vt 0.233491 0.952223
vt 0.030582 0.964773
vt 0.383144 0.959307
vt 0.383144 0.957467
vt 0.383144 0.959307
vt 0.381321 0.956100
vt 0.381321 0.956100
vt 0.381321 0.956100
vt 0.381321 0.956100
vt 0.157521 0.961830
vt 0.383144 0.959307
vt 0.383144 0.953152
vt 0.383144 0.956219
vt 0.380691 0.959306
vt 0.233491 0.952223
vt 0.230732 0.960901
vt 0.498082 0.957114
vn 0.7248 -0.6880 0.0356
vn 0.1180 -0.9842 0.1318
vn 0.3263 -0.7046 0.6301
vn 0.1767 -0.6624 0.7280
vn 0.9782 -0.1576 0.1351
vn 0.1432 -0.6510 0.7455
vn -0.3036 -0.5409 0.7844
vn -0.1646 -0.8323 0.5294
vn 0.4963 0.8349 0.2381
vn 0.1066 -0.3331 -0.9368
vn 0.3308 0.8322 -0.4450
vn 0.6882 0.6728 -0.2717
vn 0.8066 0.2585 -0.5316
vn 0.3390 0.6082 -0.7178
vn -0.9601 -0.2178 -0.1753
vn -0.9976 -0.0555 0.0419
vn -0.5222 -0.5445 -0.6564
vn 0.9856 -0.0335 0.1659
vn 0.2948 0.9247 -0.2409
vn 0.8830 0.0876 0.4612
vn 0.2989 0.9402 0.1632
vn -0.2237 0.9709 -0.0856
vn 0.2605 0.8993 -0.3511
vn 0.9685 0.1740 -0.1781
vn 0.3651 0.9187 -0.1507
vn 0.5537 -0.6043 -0.5729
vn 0.1684 0.3056 -0.9372
vn 0.1143 0.9200 -0.3748
vn 0.5060 0.8443 -0.1765
vn -0.2477 -0.6797 0.6904
vn -0.0045 -0.8342 -0.5515
vn 0.3624 -0.9163 0.1703
vn -0.0751 0.9586 0.2746
vn 0.3478 -0.2798 0.8949
vn -0.2059 0.0530 -0.9771
vn -0.9060 -0.2093 -0.3679
vn -0.4035 0.8450 -0.3509
vn -0.1938 0.5649 -0.8021
vn -0.0201 0.9826 -0.1847
vn -0.0246 0.8495 -0.5270
vn 0.3662 0.7971 -0.4801
vn 0.1388 0.5089 -0.8496
vn 0.3626 -0.4777 -0.8002
vn -0.2662 -0.9539 0.1384
vn 0.0330 0.9793 0.1998
vn -0.8168 -0.5673 0.1051
vn -0.9798 0.1874 -0.0695
vn 0.3977 0.8985 -0.1858
vn -0.4895 0.6250 -0.6080
vn -0.5525 -0.7085 0.4391
vn -0.9814 -0.1194 -0.1503
vn 0.7251 0.1810 -0.6645
vn 0.1242 0.6768 -0.7256
vn 0.1782 0.9699 0.1658
vn -0.3212 -0.9446 0.0675
vn -0.1858 -0.9785 -0.0899
vn 0.4694 -0.7670 0.4374
vn 0.0969 0.8512 -0.5158
vn 0.3449 0.9200 -0.1864
vn 0.3261 0.9272 -0.1844
vn -0.2696 -0.0038 -0.9630
vn -0.4249 0.8982 0.1122
vn -0.5204 0.7190 -0.4608
vn -0.4609 0.7570 -0.4631
vn 0.3198 0.9248 -0.2059
vn 0.3481 0.9177 -0.1917
vn -0.0317 0.8675 -0.4964
vn -0.9912 -0.0706 -0.1122
vn 0.5682 -0.6443 -0.5118
vn 0.1454 -0.9833 0.1093
vn 0.9977 0.0426 -0.0521
vn 0.1304 -0.9550 0.2663
vn 0.1937 -0.5958 -0.7794
vn 0.4105 -0.7675 -0.4923
vn 0.9875 -0.0339 -0.1536
vn -0.9934 -0.0760 0.0856
vn -0.9935 -0.0735 0.0873
vn -0.8217 -0.5492 -0.1525
vn -0.9580 -0.2658 0.1074
vn 0.5871 -0.8094 0.0104
vn 0.3103 -0.9490 -0.0549
vn 0.4780 0.8066 -0.3478
vn 0.1674 -0.5211 0.8369
vn -0.9968 -0.0801 -0.0073
vn -0.9961 -0.0876 0.0033
vn -0.9973 -0.0706 -0.0207
vn -0.9956 -0.0934 0.0115
vn 0.0291 -0.9935 0.1099
vn 0.6782 -0.4965 0.5418
vn 0.6377 -0.6049 -0.4769
vn 0.7220 -0.6908 0.0397
vn 0.9322 0.3617 0.0116
vn 0.9396 0.0865 0.3313
vn 0.4800 0.6570 0.5813
vn 0.4060 0.5244 -0.7484
vn -0.6115 0.4044 -0.6801
vn -0.3725 -0.8047 -0.4623
vn -0.6592 -0.4721 0.5853
vn -0.4444 -0.8644 0.2353
vn -0.4100 0.6069 0.6809
vn -0.7775 0.5880 0.2230
vn -0.9529 0.0365 0.3010
vn 0.6373 -0.6697 0.3812
vn 0.0364 -0.9215 -0.3867
vn 0.1320 -0.8419 -0.5233
vn 0.4091 0.7559 0.5111
vn -0.0998 -0.9917 -0.0812
vn -0.7089 -0.5846 -0.3947
vn -0.9976 -0.0342 -0.0607
vn -0.9973 -0.0728 0.0010
vn -0.9837 0.0372 -0.1757
vn -0.3979 0.8208 -0.4098
vn 0.6765 -0.5597 -0.4787
vn 0.0542 -0.5221 -0.8511
vn 0.4161 0.9039 0.0989
vn -0.1039 -0.9915 -0.0779
vn 0.4372 -0.8649 0.2466
vn 0.3828 0.5514 -0.7412
vn 0.3618 0.6764 -0.6416
vn 0.4405 -0.6015 0.6665
vn 0.1906 -0.2880 -0.9385
vn -0.6598 -0.6102 -0.4387
vn -0.3337 -0.9413 -0.0507
vn -0.8679 -0.4581 0.1921
vn 0.9693 0.1254 0.2115
vn 0.4495 0.7859 0.4247
vn -0.0660 -0.7324 -0.6776
vn -0.7338 0.3639 0.5736
vn 0.1968 -0.9595 0.2017
vn 0.1098 -0.6922 0.7133
vn 0.1112 -0.6947 0.7107
vn 0.4035 -0.6282 -0.6653
vn -0.6401 0.6701 0.3759
vn 0.1778 -0.5660 -0.8050
vn 0.4880 -0.8466 0.2126
vn 0.5046 -0.8220 -0.2641
vn -0.7822 -0.5299 -0.3276
vn -0.0617 0.9219 -0.3825
vn -0.4444 0.5092 -0.7370
vn 0.1113 -0.6125 -0.7826
vn -0.2522 -0.6059 -0.7545
vn -0.3713 -0.6380 0.6746
vn -0.9994 0.0150 -0.0328
vn 0.6661 -0.4648 -0.5833
vn -0.1942 -0.9559 0.2204
vn 0.1674 -0.9859 0.0056
vn -0.3759 -0.9158 -0.1413
vn 0.0999 -0.6836 0.7230
vn 0.3909 0.9041 -0.1726
vn 0.4164 0.8944 -0.1635
vn -0.2688 0.8668 -0.4201
vn -0.5324 0.7040 -0.4701
vn 0.3456 -0.9328 -0.1021
vn 0.3761 -0.9266 -0.0024
vn 0.1760 -0.9006 -0.3974
vn 0.0178 -0.7528 -0.6580
vn -0.9937 -0.1015 0.0482
vn -0.9937 -0.1013 0.0479
vn -0.9978 -0.0539 0.0373
vn -0.9978 -0.0518 0.0416
vn -0.9977 -0.0547 0.0400
vn -0.9979 -0.0531 0.0362
vn 0.4581 -0.8747 0.1581
vn 0.4701 -0.8648 0.1765
vn 0.2776 -0.5647 0.7772
vn 0.2767 -0.8215 0.4985
vn 0.0668 -0.8903 -0.4504
vn 0.2926 -0.6564 0.6954
vn -0.9951 -0.0901 0.0399
vn -0.9953 -0.0872 0.0411
vn -0.9954 -0.0859 0.0417
vn -0.9949 -0.0929 0.0388
vn 0.6228 0.5725 -0.5333
vn 0.6617 -0.6817 0.3120
vn 0.6439 -0.3996 -0.6525
vn 0.6021 0.2536 -0.7571
vn -0.4494 -0.7671 -0.4578
vn -0.4777 0.8674 0.1390
vn -0.6203 0.1278 -0.7739
vn -0.8316 -0.5507 0.0723
vn -0.2022 0.3986 -0.8945
vn 0.1076 -0.9935 -0.0374
vn 0.1583 -0.9858 -0.0564
vn 0.5990 -0.4229 0.6799
vn -0.3243 -0.2625 0.9088
vn 0.2774 -0.9608 0.0021
vn -0.1135 -0.2286 0.9669
vn -0.0033 -0.9792 0.2028
vn 0.0913 -0.9854 -0.1434
vn 0.7744 -0.5441 -0.3229
vn 0.9964 0.0398 -0.0743
vn 0.9966 0.0390 -0.0727
vn -0.7992 -0.1798 0.5736
vn 0.2008 0.1464 0.9686
vn -0.4042 -0.8826 -0.2402
vn 0.1550 0.9789 0.1332
vn 0.4687 0.8651 -0.1787
vn 0.0343 -0.3103 0.9500
vn 0.0081 -0.5379 0.8429
vn 0.0847 0.4061 0.9099
vn 0.4640 0.8675 -0.1795
vn 0.6370 0.7564 -0.1485
vn 0.3377 0.9214 -0.1921
vn -0.9973 0.0594 -0.0428
vn 0.2053 0.8277 -0.5223
vn -0.5619 -0.5355 -0.6305
vn 0.3607 -0.9162 0.1747
vn 0.2646 -0.9599 0.0925
vn 0.1931 -0.9810 0.0178
vn 0.2805 -0.9503 0.1352
vn 0.3469 0.9180 -0.1922
vn -0.7933 0.1499 -0.5901
vn -0.1514 -0.6608 -0.7352
vn 0.8533 0.0110 0.5213
vn 0.7684 -0.0946 0.6329
vn -0.0023 0.1428 -0.9898
vn -0.0160 -0.4111 0.9115
vn 0.9582 -0.1592 -0.2377
vn 0.9255 0.1429 -0.3506
vn 0.8115 -0.3834 0.4410
vn -0.5680 -0.8217 0.0463
vn 0.9975 0.0612 0.0366
vn 0.9974 0.0629 0.0362
vn 0.2617 -0.9570 0.1254
vn -0.9978 -0.0603 0.0280
vn -0.0497 0.1865 0.9812
vn -0.2973 0.6194 0.7266
vn -0.3574 -0.2468 0.9007
vn -0.3395 0.4682 0.8158
vn -0.2933 -0.5685 0.7686
vn -0.9429 0.3219 -0.0856
vn -0.0629 -0.9836 0.1693
vn -0.0571 -0.9733 0.2224
vn -0.2331 0.0934 0.9680
vn 0.2047 0.0095 0.9788
vn 0.0237 0.4090 0.9122
vn -0.4574 0.1161 -0.8817
vn 0.1156 -0.9835 -0.1389
vn -0.0558 -0.2700 0.9612
vn 0.5842 0.7959 -0.1589
vn -0.5154 0.7329 -0.4441
vn 0.4903 -0.7999 0.3461
vn -0.0451 -0.9845 0.1695
vn 0.1721 0.1200 -0.9777
vn 0.1400 -0.9895 -0.0361
vn -0.5630 -0.8155 -0.1339
vn -0.6081 0.6728 -0.4215
vn -0.7693 0.0258 -0.6383
vn -0.8796 0.1178 -0.4608
vn -0.9728 0.1511 -0.1754
vn -0.0680 -0.9731 0.2202
vn -0.9948 -0.0932 0.0415
vn -0.9920 -0.1173 0.0461
vn -0.9926 -0.1127 0.0447
vn 0.3445 -0.5357 -0.7709
vn 0.3007 -0.6888 0.6597
vn -0.0624 -0.6015 -0.7964
vn -0.6661 -0.6509 -0.3642
vn -0.2141 -0.6040 -0.7677
vn -0.9856 0.0335 -0.1659
vn 0.3250 0.9276 -0.1842
vn 0.0064 -0.2601 0.9656
vn 0.3745 -0.6378 -0.6731
vn 0.9977 -0.0377 -0.0569
vn -0.0787 0.9582 -0.2749
vn -0.1452 0.6828 0.7161
vn -0.6171 -0.7806 0.0995
vn 0.1765 -0.9823 -0.0633
vn -0.9903 -0.1307 0.0477
usemtl AstroMat
s 1
f 4/1/1 57/2/2 5/3/3
f 39/4/4 49/5/4 8/6/4
f 77/7/5 5/3/5 2/8/5
f 3/9/6 79/10/7 56/11/8
f 14/12/9 16/13/10 20/14/11
f 7/15/12 19/16/13 38/17/14
f 29/18/15 32/19/16 30/20/17
f 9/21/18 43/22/18 80/23/18
f 47/24/19 19/25/20 44/26/21
f 52/27/22 7/15/12 51/28/23
f 51/28/24 38/17/24 47/29/24
f 54/30/18 41/31/18 56/32/18
f 53/33/25 4/34/26 75/35/27
f 44/26/28 20/14/11 61/36/29
f 49/5/30 39/4/30 57/2/30
f 77/7/31 5/3/31 74/37/31
f 79/10/32 9/21/33 43/22/34
f 64/38/35 67/39/36 59/40/37
f 75/35/27 74/41/38 42/42/39
f 44/43/40 52/27/22 38/17/41
f 62/44/42 45/45/43 99/46/44
f 47/24/19 44/26/21 38/47/45
f 53/33/25 75/35/27 42/42/39
f 85/48/46 44/26/47 86/49/48
f 73/50/49 72/51/50 71/52/51
f 81/53/52 71/52/51 94/54/53
f 44/26/40 94/54/53 71/52/51
f 68/55/54 63/56/55 60/57/56
f 92/58/57 64/38/35 63/56/55
f 67/39/36 68/55/54 59/40/37
f 21/59/58 95/60/59 65/61/60
f 21/59/61 22/62/62 89/63/63
f 21/59/64 85/48/65 86/49/66
f 20/14/11 36/64/67 35/65/68
f 20/14/11 35/65/68 21/59/58
f 13/66/69 36/64/67 20/14/11
f 100/67/70 34/68/71 13/66/69
f 46/69/72 21/70/58 35/71/68
f 91/72/73 26/73/74 83/74/75
f 91/72/73 84/75/76 24/76/77
f 91/72/73 83/74/75 84/75/76
f 88/77/78 91/72/73 87/78/79
f 11/79/80 100/67/70 13/66/69
f 14/12/9 10/80/81 15/81/82
f 10/80/81 101/82/83 15/81/82
f 102/83/84 98/84/85 66/85/86
f 98/84/85 102/83/84 97/86/87
f 12/87/88 101/82/83 10/80/81
f 104/88/89 118/89/90 106/90/91
f 119/91/92 104/88/89 106/90/93
f 105/92/94 119/91/92 103/93/95
f 117/94/96 105/92/94 103/93/95
f 120/95/97 127/96/98 123/97/99
f 117/94/96 128/98/100 105/92/94
f 124/99/101 121/100/102 117/94/96
f 8/6/103 49/5/104 57/2/2
f 39/4/18 1/101/18 49/5/18
f 77/7/105 4/1/105 5/3/105
f 4/1/1 8/6/103 57/2/2
f 28/102/106 33/103/107 32/19/108
f 91/72/109 85/104/110 27/105/111
f 29/18/112 21/106/61 32/19/113
f 37/107/114 35/65/68 36/64/67
f 62/44/42 11/108/80 45/45/43
f 12/109/88 63/110/55 11/108/80
f 47/24/19 38/47/115 19/25/20
f 53/111/116 10/112/81 42/113/117
f 51/28/118 7/15/118 38/17/118
f 53/33/25 42/42/119 4/34/26
f 12/87/88 10/80/81 63/56/55
f 3/114/120 39/4/121 8/6/103
f 45/45/43 11/108/80 99/46/44
f 74/37/122 5/3/123 57/2/124
f 3/115/120 8/116/103 6/117/125 40/118/126
f 59/40/37 68/55/54 60/57/56
f 74/119/122 60/57/56 42/113/127
f 52/120/22 48/121/128 40/118/126
f 93/122/129 25/123/130 87/124/131
f 93/125/132 28/102/133 32/19/134
f 93/122/129 26/126/135 83/127/136
f 32/19/137 94/128/53 29/18/138
f 38/17/139 52/27/139 51/28/139
f 58/129/140 74/41/38 75/35/27
f 63/56/55 10/112/81 60/57/56
f 57/2/124 39/4/141 79/130/142
f 44/26/47 85/48/46 27/131/143
f 81/53/52 73/50/49 71/52/51
f 93/132/144 81/133/52 94/134/53
f 72/135/50 81/133/52 93/132/145
f 93/122/145 71/52/51 72/51/50
f 99/136/44 84/137/146 24/138/147
f 93/122/129 88/139/148 26/126/135
f 64/38/35 92/58/57 67/39/36
f 68/55/54 92/58/57 63/56/55
f 96/140/149 21/59/58 23/141/150
f 27/131/151 21/59/64 90/142/152
f 33/143/107 46/144/72 34/68/71
f 33/145/107 28/146/106 46/69/72
f 100/67/153 24/138/154 84/137/155
f 100/67/153 84/137/155 83/127/156
f 91/72/109 86/147/157 85/104/110
f 91/72/109 23/148/158 86/147/157
f 91/72/159 90/149/160 89/150/161
f 91/72/159 27/105/162 90/149/160
f 97/151/163 100/67/153 98/152/164
f 88/139/165 100/67/166 26/126/167
f 88/139/165 87/124/168 100/67/166
f 102/83/169 95/153/170 96/154/171
f 102/83/169 65/155/172 95/153/170
f 20/14/11 16/13/10 13/156/69
f 16/13/10 101/82/83 13/156/69
f 16/13/10 14/12/9 15/81/82
f 13/156/69 101/82/83 12/87/88
f 105/92/94 104/88/89 119/91/92
f 105/92/94 128/98/100 104/88/89
f 103/93/95 119/91/92 118/89/90
f 106/157/91 118/158/90 107/159/173
f 112/160/174 110/161/175 108/162/176
f 114/163/177 110/161/175 112/160/174
f 111/164/178 112/160/174 109/165/179
f 121/100/102 123/97/99 127/96/98
f 118/89/90 104/88/89 127/96/98
f 127/96/98 104/88/89 128/98/100
f 121/166/102 124/167/101 125/168/180
f 120/95/97 118/89/90 127/96/98
f 125/168/180 124/167/101 122/169/181
f 11/79/80 62/170/182 66/171/183
f 18/172/184 16/13/10 15/173/82
f 16/13/10 18/172/184 17/174/185
f 14/12/9 20/14/11 44/26/28
f 3/175/6 56/176/8 41/31/186
f 4/177/26 42/113/119 10/112/81
f 43/22/187 3/9/188 80/178/189
f 32/19/113 21/106/61 28/102/190
f 102/83/191 65/155/192 61/179/192
f 68/55/54 67/39/36 69/180/193
f 70/181/194 69/180/193 67/39/36
f 70/181/194 68/55/54 69/180/193
f 82/182/195 73/50/49 81/53/52
f 29/183/138 94/184/53 22/185/196
f 65/61/197 44/26/28 61/36/29
f 74/37/198 78/186/199 77/7/200
f 99/46/44 11/108/80 63/110/55
f 65/61/197 95/60/201 44/26/28
f 44/26/47 96/140/202 23/141/203
f 27/131/143 90/142/204 44/26/47
f 94/54/53 89/63/205 22/62/196
f 44/26/47 23/141/203 86/49/48
f 93/132/144 94/134/53 28/146/206
f 98/152/207 66/171/208 99/136/209
f 97/151/210 98/152/207 99/136/209
f 63/56/55 93/122/129 99/136/44
f 86/49/66 23/141/211 21/59/64
f 36/64/67 13/66/69 34/68/71
f 46/69/72 28/146/212 21/70/58
f 25/187/213 87/78/79 91/72/73
f 91/72/73 88/77/78 26/73/74
f 110/161/175 109/165/179 107/159/173
f 112/160/174 116/188/214 113/189/215
f 125/168/180 126/190/216 121/166/217
f 123/97/99 124/99/101 120/95/97
f 122/169/218 124/167/101 123/191/99
f 126/190/216 122/169/181 121/166/219
f 129/192/220 126/190/216 125/168/180
f 122/169/181 130/193/221 125/168/180
f 129/192/220 125/168/180 130/193/221
f 130/193/221 126/190/216 129/192/220
f 102/83/222 62/194/223 66/85/223
f 99/136/209 24/138/224 97/151/210
f 19/25/20 4/177/26 10/112/81
f 97/151/163 24/138/154 100/67/153
f 89/150/161 22/195/225 91/72/159
f 33/196/107 100/197/70 31/198/226
f 31/198/226 100/197/70 25/199/227
f 29/183/112 22/185/62 21/200/61
f 4/1/228 77/7/229 78/186/230
f 60/57/56 74/119/122 59/40/37
f 48/121/128 50/201/231 57/202/124
f 52/27/22 59/40/37 50/201/231
f 55/203/232 74/204/198 58/205/233
f 76/206/234 3/115/235 40/118/236
f 92/58/57 70/181/194 67/39/36
f 68/55/54 70/181/194 92/58/57
f 39/207/141 41/31/237 79/208/142
f 43/22/34 80/178/238 79/10/32
f 32/19/137 28/102/206 94/128/53
f 76/206/234 79/209/142 80/210/239
f 96/140/202 44/26/47 95/60/240
f 88/139/148 93/122/129 87/124/131
f 90/142/152 21/59/64 89/63/241
f 93/122/145 63/56/55 71/52/51
f 96/140/149 95/60/59 21/59/58
f 21/59/64 27/131/151 85/48/65
f 33/143/107 34/68/71 100/67/70
f 118/158/90 119/211/92 107/159/173
f 108/162/176 107/159/173 119/211/92
f 107/159/173 108/162/176 110/161/175
f 108/162/176 109/165/179 112/160/174
f 116/212/242 115/213/242 113/214/242
f 112/160/174 111/164/178 116/188/214
f 120/95/97 124/99/101 117/94/96
f 121/166/102 122/169/218 123/191/99
f 122/169/181 126/190/216 130/193/221
f 7/15/12 40/118/126 6/117/125
f 4/177/1 19/25/13 6/117/125
f 19/25/13 7/15/12 6/117/125
f 40/118/126 7/15/12 52/27/22
f 9/21/33 3/9/188 43/22/187
f 55/203/243 4/215/228 78/216/230
f 19/25/20 14/12/9 44/26/21
f 19/217/20 10/218/81 14/219/9
f 16/13/10 17/174/185 101/82/83
f 3/175/120 41/31/244 39/207/121
f 46/220/72 37/107/114 34/68/71
f 46/69/72 35/71/68 37/221/114
f 52/27/22 44/43/40 59/40/37
f 55/203/232 78/216/199 74/204/198
f 64/38/35 44/26/40 71/52/51
f 64/38/35 59/40/37 44/26/40
f 99/136/209 66/171/208 62/170/245
f 79/208/7 41/31/246 56/176/8
f 40/118/236 48/121/128 76/206/234
f 53/111/116 60/57/56 10/112/81
f 116/188/247 111/164/248 114/163/177
f 114/163/177 112/160/174 113/189/249
f 8/116/103 4/177/1 6/117/125
f 55/222/250 78/186/250 77/7/250 2/8/250
f 15/173/82 101/82/83 17/174/185 18/172/184
f 9/21/33 79/10/32 3/9/188
f 55/203/243 58/205/251 4/215/228
f 11/223/80 13/224/69 12/225/88
f 96/154/252 23/148/252 91/72/253 102/83/254
f 25/226/213 91/227/73 30/20/17 31/228/255
f 87/124/168 25/123/256 100/67/166
f 100/67/166 83/127/257 26/126/167
f 33/103/107 31/228/258 30/20/258 32/19/108
f 22/229/259 29/18/15 30/20/17 91/227/73
f 41/31/260 54/30/260 1/230/260 39/207/260
f 34/68/71 37/107/114 36/64/67
f 65/61/60 61/36/261 20/14/11 21/59/58
f 4/34/26 58/129/140 75/35/27
f 50/201/231 59/40/37 74/119/122 57/202/124
f 76/206/234 80/210/262 3/115/235
f 48/121/128 57/202/124 79/209/142 76/206/234
f 50/201/231 48/121/128 52/27/22
f 30/20/263 31/228/264 93/125/132 32/19/134
f 63/231/55 64/232/35 71/233/51
f 90/142/265 89/63/265 94/54/53 44/26/40
f 31/198/264 25/199/266 93/234/132
f 73/50/49 82/182/195 72/51/50
f 72/135/50 82/235/195 81/133/52
f 53/111/116 42/113/267 60/57/56
f 83/127/136 84/137/146 99/136/44 93/122/129
f 100/67/70 11/79/80 66/171/183 98/152/268
f 97/86/269 102/83/254 91/72/253 24/76/269
f 120/236/97 117/94/96 103/93/95 118/89/90
f 119/211/92 106/157/93 109/165/179 108/162/176
f 109/165/179 110/161/175 114/163/177 111/164/248
f 109/165/179 106/157/93 107/159/173
f 128/98/100 117/94/96 121/100/102 127/96/98
f 116/212/247 114/237/177 113/214/249
